<?xml version="1.0" encoding="iso-8859-1"?>
<!-- Generator: Adobe Illustrator 19.0.0, SVG Export Plug-In . SVG Version: 6.00 Build 0)  -->
<svg version="1.1" id="Layer_1" xmlns="http://www.w3.org/2000/svg" xmlns:xlink="http://www.w3.org/1999/xlink" x="0px" y="0px"
	 viewBox="0 0 512.002 512.002" style="enable-background:new 0 0 512.002 512.002;" xml:space="preserve">
<g>
	<circle style="fill:#CFF09E;" cx="109.182" cy="414.138" r="83.879"/>
	<circle style="fill:#CFF09E;" cx="402.814" cy="344.197" r="83.879"/>
</g>
<g>
	<path style="fill:#507C5C;" d="M193.063,209.883c-7.721,0-13.98,6.259-13.98,13.98V345.75
		c-17.777-18.164-42.538-29.465-69.899-29.465c-53.959,0-97.859,43.899-97.859,97.859s43.899,97.859,97.859,97.859
		s97.859-43.899,97.859-97.859v-190.28C207.042,216.142,200.784,209.883,193.063,209.883z M109.184,484.041
		c-38.542,0-69.899-31.357-69.899-69.899s31.357-69.899,69.899-69.899s69.899,31.357,69.899,69.899S147.726,484.041,109.184,484.041
		z"/>
	<path style="fill:#507C5C;" d="M496.101,3.637c-2.913-2.649-6.811-3.948-10.731-3.573L191.736,28.041
		c-7.174,0.684-12.655,6.71-12.655,13.917v91.735c0,0.01,0.001,0.02,0.001,0.029c0.001,0.243,0.024,0.489,0.038,0.735
		c0.013,0.239,0.017,0.481,0.042,0.717c0.001,0.01,0,0.02,0.001,0.031c0.025,0.236,0.073,0.464,0.109,0.696
		c0.062,0.383,0.136,0.76,0.228,1.132c0.064,0.261,0.122,0.526,0.2,0.78c0.05,0.164,0.116,0.322,0.172,0.482
		c0.091,0.263,0.18,0.527,0.287,0.781c0.062,0.145,0.134,0.284,0.2,0.428c0.12,0.261,0.239,0.523,0.373,0.774
		c0.073,0.137,0.157,0.267,0.233,0.4c0.143,0.247,0.287,0.493,0.443,0.73c0.088,0.133,0.185,0.26,0.277,0.39
		c0.161,0.225,0.322,0.447,0.495,0.663c0.108,0.133,0.221,0.259,0.333,0.387c0.172,0.197,0.344,0.391,0.526,0.579
		c0.129,0.133,0.261,0.259,0.396,0.386c0.178,0.169,0.358,0.336,0.544,0.495c0.15,0.127,0.302,0.25,0.456,0.372
		c0.183,0.144,0.369,0.284,0.559,0.418c0.168,0.119,0.338,0.233,0.512,0.345c0.19,0.122,0.383,0.239,0.579,0.352
		c0.182,0.105,0.363,0.207,0.551,0.305c0.203,0.106,0.411,0.203,0.619,0.298c0.186,0.085,0.372,0.171,0.563,0.249
		c0.228,0.092,0.46,0.173,0.693,0.253c0.179,0.062,0.356,0.127,0.538,0.182c0.271,0.081,0.548,0.147,0.825,0.212
		c0.152,0.035,0.301,0.077,0.454,0.108c0.355,0.07,0.716,0.122,1.078,0.165c0.084,0.01,0.166,0.027,0.252,0.035
		c0.457,0.046,0.918,0.073,1.384,0.073c0.042,0,0.085-0.007,0.127-0.007c0.463-0.004,0.921-0.027,1.373-0.074
		c0.01-0.001,0.02,0,0.029-0.001l222.192-24.179v79.476c0,7.721,6.259,13.98,13.98,13.98c7.721,0,13.98-6.259,13.98-13.98v-95.06
		c0-0.01-0.001-0.02-0.001-0.029c-0.001-0.243-0.024-0.489-0.038-0.735c-0.013-0.239-0.017-0.481-0.042-0.717
		c-0.001-0.01,0-0.02-0.001-0.031c-0.014-0.127-0.043-0.249-0.06-0.376c-0.046-0.337-0.091-0.674-0.161-1.004
		c-0.028-0.136-0.07-0.266-0.103-0.4c-0.077-0.317-0.154-0.636-0.252-0.944c-0.052-0.164-0.117-0.319-0.175-0.48
		c-0.096-0.27-0.19-0.54-0.302-0.802c-0.08-0.185-0.173-0.359-0.26-0.54c-0.109-0.228-0.214-0.459-0.336-0.678
		c-0.102-0.186-0.219-0.362-0.33-0.544c-0.124-0.204-0.245-0.411-0.379-0.608c-0.117-0.172-0.247-0.333-0.372-0.498
		c-0.147-0.194-0.288-0.393-0.445-0.579c-0.123-0.145-0.256-0.281-0.384-0.422c-0.175-0.193-0.348-0.389-0.534-0.572
		c-0.12-0.119-0.249-0.225-0.373-0.34c-0.208-0.19-0.414-0.383-0.633-0.561c-0.117-0.095-0.242-0.18-0.362-0.271
		c-0.238-0.18-0.474-0.361-0.723-0.527c-0.12-0.08-0.247-0.148-0.37-0.225c-0.259-0.159-0.516-0.32-0.784-0.463
		c-0.138-0.074-0.284-0.136-0.426-0.206c-0.26-0.127-0.519-0.257-0.787-0.368c-0.183-0.075-0.373-0.137-0.559-0.204
		c-0.235-0.085-0.466-0.176-0.706-0.25c-0.254-0.078-0.516-0.136-0.776-0.2c-0.18-0.043-0.357-0.096-0.54-0.133
		c-0.333-0.067-0.672-0.112-1.012-0.154c-0.119-0.015-0.235-0.039-0.355-0.052c-0.366-0.036-0.74-0.049-1.111-0.056
		c-0.096-0.001-0.19-0.014-0.288-0.014c-0.008,0-0.015,0.001-0.024,0.001c-0.26,0.001-0.524,0.024-0.787,0.039
		c-0.224,0.013-0.45,0.015-0.671,0.039c-0.01,0.001-0.021,0-0.031,0.001l-222.186,24.177v-63.44l265.675-25.313v246.45
		c-17.777-18.164-42.538-29.465-69.899-29.465c-53.959,0-97.859,43.899-97.859,97.859s43.899,97.859,97.859,97.859
		s97.859-43.899,97.859-97.859V13.98C500.677,10.042,499.014,6.287,496.101,3.637z M402.818,414.099
		c-38.542,0-69.899-31.357-69.899-69.899s31.357-69.899,69.899-69.899s69.899,31.357,69.899,69.899S441.36,414.099,402.818,414.099z
		"/>
</g>
<g>
</g>
<g>
</g>
<g>
</g>
<g>
</g>
<g>
</g>
<g>
</g>
<g>
</g>
<g>
</g>
<g>
</g>
<g>
</g>
<g>
</g>
<g>
</g>
<g>
</g>
<g>
</g>
<g>
</g>
</svg>
